<svg xmlns="http://www.w3.org/2000/svg" viewBox="0 0 47.19 47.43"><defs><style>.cls-1{isolation:isolate;}.cls-2{fill:#09318c;}.cls-3{fill:#e8c570;}.cls-4,.cls-5{fill:#f5c12e;opacity:0.3;}.cls-4{mix-blend-mode:screen;}.cls-5{mix-blend-mode:multiply;}</style></defs><g class="cls-1"><g id="Layer_2" data-name="Layer 2"><g id="Layer_1-2" data-name="Layer 1"><path class="cls-2" d="M44,23.89l3.21-.59-.29-2.38H43.75l-.6-2.26,3.09-1.54L45.41,15l-3.09.95-1.07-2.14,2.61-2.26-1.3-2-3,1.9L38,9.51l1.9-2.73L38.28,5.23l-2.5,2.38L33.88,6.3,35.07,3l-2.26-.83-1.55,3L29,4.4,29.48.71,27,.24l-.9,3.56-2.31-.23L23.18,0l-2.5.24.24,3.56-2.38.6L17,1l-2.14.83.83,3.45-1.9,1.19-2.38-3L9.39,5l1.9,3L9.51,9.51l-3-2.14L5,9.27l2.62,2.38-1.19,1.9L3,12.36,1.9,14.5l3.21,1.67-.83,2.26L.71,18,.24,20.33l3.56,1-.35,2.26L0,24.13l.12,2.38,3.57-.12.47,2.38L.83,30.19l.83,2.26L5,31.5l1.19,2.14-3,2.26,1.43,1.9,3-1.78L9.15,37.8,7,40.65,8.8,42.2l2.49-2.5,2,1.31L12,44.46l2.25.83,1.55-2.85,2.38.83-.48,3.33,2.38.47L21,43.75l2.26.35.47,3.33,2.58-.31-.08-3.26,2.38-.47L30,46.48l2.33-1-.91-2.95,2.14-1.19L35.66,44l2-1.3L35.9,39.82l1.9-1.54,2.62,2,1.66-2L39.7,36.14l1.43-2,3.09,1.07.83-2.26L42.44,31.5l.71-2.38,3.21.36.48-2.38-3.21-.83ZM23.6,41.13A17.42,17.42,0,1,1,41,23.72,17.42,17.42,0,0,1,23.6,41.13Z"/><path class="cls-2" d="M23.33,7.55A16.17,16.17,0,1,0,39.76,23.44,16.17,16.17,0,0,0,23.33,7.55ZM35,15.11,31.8,16.34a10.79,10.79,0,0,0-6.21-3.5L24.9,9.51A14.23,14.23,0,0,1,35,15.11Zm-13-5.56-.59,3.37a10.84,10.84,0,0,0-5.91,3.59L12,15.37A14.21,14.21,0,0,1,21.93,9.55ZM9.33,24a14.29,14.29,0,0,1,1.15-5.86l2.9,2.14a10.75,10.75,0,0,0-.5,3.23v.06a10.52,10.52,0,0,0,.54,3.37l-2.86,2.62A14.48,14.48,0,0,1,9.33,24ZM12,32l3.64-1.32A10.92,10.92,0,0,0,21.37,34l.69,3.87A14.23,14.23,0,0,1,12,32Zm2.38-8.14a9.21,9.21,0,1,1,9.38,9A9.21,9.21,0,0,1,14.39,23.89ZM25,37.91l.72-3.83a10.77,10.77,0,0,0,5.89-3.29L35.24,32A14.26,14.26,0,0,1,25,37.91ZM33.89,27a10.79,10.79,0,0,0,.6-3.74A10.91,10.91,0,0,0,33.93,20l2.61-2.33a14.11,14.11,0,0,1,1.32,5.77,14.26,14.26,0,0,1-1.17,5.92Z"/><path class="cls-2" d="M23.6,17.47a6.25,6.25,0,1,0,6.24,6.25A6.24,6.24,0,0,0,23.6,17.47Zm0,11.66A5.42,5.42,0,1,1,29,23.72,5.41,5.41,0,0,1,23.6,29.13Z"/><circle class="cls-2" cx="23.6" cy="23.72" r="5.17"/><path class="cls-3" d="M24,26.11l-.42.56h0l-.43-.56a3.58,3.58,0,0,1-.36-3.77l.79-1.58h0l.78,1.57A3.58,3.58,0,0,1,24,26.11Z"/><path class="cls-4" d="M24,26.11l-.42.56a7.61,7.61,0,0,0,.63-2.79,10.51,10.51,0,0,0-.63-3.11l.78,1.57A3.58,3.58,0,0,1,24,26.11Z"/><path class="cls-5" d="M23.18,26.11l.42.56A7.61,7.61,0,0,1,23,23.88a10.51,10.51,0,0,1,.63-3.11l-.78,1.57A3.58,3.58,0,0,0,23.18,26.11Z"/></g></g></g></svg>