<svg xmlns="http://www.w3.org/2000/svg" viewBox="0 0 398.98 134.5"><defs><style>.cls-1{isolation:isolate;}.cls-2{fill:#09318c;}.cls-3,.cls-4,.cls-5{fill:#e8c570;}.cls-4,.cls-5,.cls-6,.cls-7{opacity:0.3;}.cls-4,.cls-6{mix-blend-mode:screen;}.cls-5,.cls-7{mix-blend-mode:multiply;}.cls-6,.cls-7{fill:#f5c12e;}</style></defs><g class="cls-1"><g id="Layer_2" data-name="Layer 2"><g id="Layer_1-2" data-name="Layer 1"><path class="cls-2" d="M0,126.38v-20a6.17,6.17,0,0,1,.46-2.54,4.33,4.33,0,0,1,1.22-1.62,4.67,4.67,0,0,1,1.69-.86,7.14,7.14,0,0,1,1.87-.26c.94,0,2,0,3.19,0s2.42,0,3.71.09,2.54.13,3.75.24v2.81H6.1a2.68,2.68,0,0,0-2,.68,2.73,2.73,0,0,0-.68,2v5.86l10.89.2v2.67l-10.89.21v10.44Z"/><path class="cls-2" d="M22.12,126.59a4.76,4.76,0,0,1-3.34-1.22A4.38,4.38,0,0,1,17.47,122v-1.44a4.56,4.56,0,0,1,1.45-3.48,6.28,6.28,0,0,1,4.4-1.35H29v-1.92a4.05,4.05,0,0,0-.36-1.79,2.34,2.34,0,0,0-1.32-1.12,8.21,8.21,0,0,0-2.84-.37H18.9v-2a27.34,27.34,0,0,1,2.9-.48,35.21,35.21,0,0,1,3.89-.24,11.16,11.16,0,0,1,3.78.56,4.23,4.23,0,0,1,2.28,1.85,6.73,6.73,0,0,1,.75,3.41v12.77H29.8l-.59-2c-.13.09-.42.26-.85.5a15.93,15.93,0,0,1-1.66.77,14.93,14.93,0,0,1-2.2.68A10.06,10.06,0,0,1,22.12,126.59Zm1.58-2.5a5,5,0,0,0,1.22-.1c.46-.1.93-.2,1.4-.33s.9-.26,1.3-.39l1-.36a3.24,3.24,0,0,0,.43-.19v-5.28l-4.79.21a3.8,3.8,0,0,0-2.55.89,2.8,2.8,0,0,0-.77,2.06v.82a2.72,2.72,0,0,0,.41,1.59,2.17,2.17,0,0,0,1,.84A3.68,3.68,0,0,0,23.7,124.09Z"/><path class="cls-2" d="M37.16,126.38V108.06H39.8l.78,3.08a12.35,12.35,0,0,1,2.61-2.36,5.86,5.86,0,0,1,3.35-1,8,8,0,0,1,.86.05,6.91,6.91,0,0,1,.79.16v3.52l-1-.12c-.34,0-.69-.05-1.06-.05a7.1,7.1,0,0,0-2.09.28,6.31,6.31,0,0,0-1.76.84,12,12,0,0,0-1.7,1.38v12.5Z"/><path class="cls-2" d="M51.41,126.38V100.25h3.42v9.8a13.25,13.25,0,0,1,2.91-1.6,9.37,9.37,0,0,1,3.53-.7,5.84,5.84,0,0,1,3.23.82,4.79,4.79,0,0,1,1.84,2.25,8.33,8.33,0,0,1,.58,3.2v12.36H63.49V114.43a4,4,0,0,0-.42-1.87,3.21,3.21,0,0,0-1.2-1.25,3.7,3.7,0,0,0-1.83-.44,8.82,8.82,0,0,0-1.91.2,8.62,8.62,0,0,0-1.66.59c-.52.25-1.07.53-1.64.85v13.87Z"/><path class="cls-2" d="M75.28,126.59a4.74,4.74,0,0,1-3.34-1.22A4.35,4.35,0,0,1,70.62,122v-1.44a4.56,4.56,0,0,1,1.45-3.48,6.28,6.28,0,0,1,4.4-1.35h5.72v-1.92a4.05,4.05,0,0,0-.36-1.79,2.35,2.35,0,0,0-1.31-1.12,8.27,8.27,0,0,0-2.85-.37H72.06v-2A26.7,26.7,0,0,1,75,108a35.21,35.21,0,0,1,3.89-.24,11.12,11.12,0,0,1,3.78.56,4.23,4.23,0,0,1,2.28,1.85,6.73,6.73,0,0,1,.75,3.41v12.77H83l-.58-2c-.14.09-.43.26-.86.5a15.93,15.93,0,0,1-1.66.77,15.18,15.18,0,0,1-2.19.68A10.18,10.18,0,0,1,75.28,126.59Zm1.57-2.5a5,5,0,0,0,1.22-.1c.46-.1.93-.2,1.4-.33s.9-.26,1.3-.39l1-.36a3.47,3.47,0,0,0,.42-.19v-5.28l-4.79.21a3.8,3.8,0,0,0-2.55.89,2.8,2.8,0,0,0-.77,2.06v.82a2.72,2.72,0,0,0,.41,1.59,2.17,2.17,0,0,0,1,.84A3.68,3.68,0,0,0,76.85,124.09Z"/><path class="cls-2" d="M96.65,126.38a6.91,6.91,0,0,1-3.07-.6,3.66,3.66,0,0,1-1.78-1.93,8.93,8.93,0,0,1-.53-3.56l.14-9.42H88.5v-2.23l3-.58.52-5.14h2.7v5.14h5v2.81h-5v9.38A5.79,5.79,0,0,0,94.9,122a2.26,2.26,0,0,0,.58,1,2.52,2.52,0,0,0,.82.5,3.57,3.57,0,0,0,.86.18l2.26.21v2.53Z"/><path class="cls-2" d="M112.33,126.38V101.14h9.39a6.9,6.9,0,0,1,5,1.65,6.56,6.56,0,0,1,1.66,4.86,7.41,7.41,0,0,1-.46,2.72,5.16,5.16,0,0,1-1.27,1.89,4.49,4.49,0,0,1-1.8,1,7.32,7.32,0,0,1,1.49.61,5.65,5.65,0,0,1,1.44,1.15,5.89,5.89,0,0,1,1.08,1.82,7.21,7.21,0,0,1,.41,2.55,8.3,8.3,0,0,1-.88,4.16,4.91,4.91,0,0,1-2.48,2.17,10.18,10.18,0,0,1-3.87.65Zm3.46-14.28h6A3,3,0,0,0,124.2,111a4.39,4.39,0,0,0,.94-2.82,3.8,3.8,0,0,0-.92-3.1,3.74,3.74,0,0,0-2.54-.88h-5.89Zm0,11.2H122a5.07,5.07,0,0,0,2.12-.41,3,3,0,0,0,1.41-1.37,5.86,5.86,0,0,0,.51-2.71,4.09,4.09,0,0,0-.55-2.17,3.65,3.65,0,0,0-1.45-1.39,4.32,4.32,0,0,0-2-.48h-6.2Z"/><path class="cls-2" d="M136.82,126.59a4.74,4.74,0,0,1-3.34-1.22,4.35,4.35,0,0,1-1.32-3.37v-1.44a4.57,4.57,0,0,1,1.46-3.48,6.26,6.26,0,0,1,4.4-1.35h5.72v-1.92a4.05,4.05,0,0,0-.36-1.79,2.34,2.34,0,0,0-1.32-1.12,8.24,8.24,0,0,0-2.84-.37H133.6v-2a27.12,27.12,0,0,1,2.89-.48,35.37,35.37,0,0,1,3.89-.24,11.08,11.08,0,0,1,3.78.56,4.23,4.23,0,0,1,2.28,1.85,6.73,6.73,0,0,1,.76,3.41v12.77h-2.71l-.58-2-.86.5a15,15,0,0,1-1.66.77,14.43,14.43,0,0,1-2.19.68A10.12,10.12,0,0,1,136.82,126.59Zm1.57-2.5a5,5,0,0,0,1.22-.1c.47-.1.94-.2,1.4-.33s.91-.26,1.31-.39l1-.36.43-.19v-5.28l-4.8.21a3.8,3.8,0,0,0-2.55.89,2.84,2.84,0,0,0-.77,2.06v.82A2.8,2.8,0,0,0,136,123a2.15,2.15,0,0,0,1.05.84A3.66,3.66,0,0,0,138.39,124.09Z"/><path class="cls-2" d="M151.85,126.38V100.25h3.43v14.83h2.5l5.1-7h3.56l-6.13,8.56,6.58,9.76h-3.6l-5.62-8.22h-2.39v8.22Z"/><path class="cls-2" d="M176.92,126.59a10.55,10.55,0,0,1-4.64-.86,4.92,4.92,0,0,1-2.46-2.89,16.94,16.94,0,0,1-.74-5.64,17.17,17.17,0,0,1,.74-5.7,4.8,4.8,0,0,1,2.44-2.86,10.85,10.85,0,0,1,4.63-.82,13.09,13.09,0,0,1,4.09.53,4,4,0,0,1,2.3,1.89A7.93,7.93,0,0,1,184,114a4.72,4.72,0,0,1-.67,2.67,3.75,3.75,0,0,1-1.88,1.44,8.61,8.61,0,0,1-2.89.44H172.5a10.15,10.15,0,0,0,.47,3.17,2.89,2.89,0,0,0,1.54,1.71,7.76,7.76,0,0,0,3.27.53h5.72V126c-1,.13-2,.27-3,.39A28.64,28.64,0,0,1,176.92,126.59Zm-4.45-10.21h5.79a3.28,3.28,0,0,0,2-.51,2.29,2.29,0,0,0,.65-1.88,4.91,4.91,0,0,0-.39-2.16,2.33,2.33,0,0,0-1.29-1.13,6.66,6.66,0,0,0-2.36-.34,5.8,5.8,0,0,0-2.66.51,2.89,2.89,0,0,0-1.37,1.81A13.56,13.56,0,0,0,172.47,116.38Z"/><path class="cls-2" d="M188.19,126.38V108.06h2.64l.78,3.08a12.35,12.35,0,0,1,2.61-2.36,5.88,5.88,0,0,1,3.35-1,7.81,7.81,0,0,1,.86.05,6.49,6.49,0,0,1,.79.16v3.52l-1-.12c-.34,0-.69-.05-1.06-.05a7.14,7.14,0,0,0-2.09.28,6.31,6.31,0,0,0-1.76.84,12,12,0,0,0-1.7,1.38v12.5Z"/><path class="cls-2" d="M207.61,134.5l2.22-8.12a5.57,5.57,0,0,1-2.09-.46,4.47,4.47,0,0,1-1.76-1.4,7.8,7.8,0,0,1-1.25-2.62l-4.11-13.84h3.6l3.7,13.12a4.43,4.43,0,0,0,.7,1.4,2.38,2.38,0,0,0,.79.67,2,2,0,0,0,.7.22l.37,0,4.29-15.45h3.52L212,131.11l-1.64,3.39Z"/><path class="cls-2" d="M236.1,126.52a11.72,11.72,0,0,1-1.81-.15,5.71,5.71,0,0,1-1.84-.65,3.77,3.77,0,0,1-1.42-1.53,6,6,0,0,1-.55-2.77v-15a6.16,6.16,0,0,1,.47-2.54,4.31,4.31,0,0,1,1.21-1.62,4.63,4.63,0,0,1,1.7-.86,7.13,7.13,0,0,1,1.86-.26c1.49,0,2.85,0,4.1.09s2.4.07,3.47.12l3.09.13v2.85h-9.73a2.82,2.82,0,0,0-2,.65,2.63,2.63,0,0,0-.72,2v5.24l10.89.21v2.67l-10.89.24v5.17a3.08,3.08,0,0,0,.4,1.75,1.92,1.92,0,0,0,1,.79,4.54,4.54,0,0,0,1.35.2h9.66v2.84c-1,.07-2.16.14-3.33.19s-2.33.1-3.51.14S237.22,126.52,236.1,126.52Z"/><path class="cls-2" d="M262.23,134.5v-9.93a12.09,12.09,0,0,1-2.72,1.44,8.45,8.45,0,0,1-3,.58,6.59,6.59,0,0,1-3.89-1,5.55,5.55,0,0,1-2.07-3.12,18.8,18.8,0,0,1-.62-5.24,16.36,16.36,0,0,1,.74-5.36,5.7,5.7,0,0,1,2.26-3,7.08,7.08,0,0,1,3.89-1q1.63,0,3.27.09c1.08,0,2.1.12,3,.2s1.78.17,2.49.26V134.5Zm-4.79-10.72a8.08,8.08,0,0,0,2.46-.38,11.5,11.5,0,0,0,2.33-1v-12h-4.45a3.94,3.94,0,0,0-2.6.8,4.42,4.42,0,0,0-1.36,2.28,14.07,14.07,0,0,0-.39,3.56,15.32,15.32,0,0,0,.41,3.94,3.77,3.77,0,0,0,1.29,2.11A3.85,3.85,0,0,0,257.44,123.78Z"/><path class="cls-2" d="M275.73,126.59a5.43,5.43,0,0,1-4-1.39,5.65,5.65,0,0,1-1.43-4.23V108.06h3.43v12a3.32,3.32,0,0,0,.94,2.77,4.29,4.29,0,0,0,2.66.72,8,8,0,0,0,2.62-.43,11.63,11.63,0,0,0,2.44-1.18V108.06h3.43v18.32h-2.74l-.69-1.95a16.77,16.77,0,0,1-3.06,1.51A10.25,10.25,0,0,1,275.73,126.59Z"/><path class="cls-2" d="M298.77,134.5V108.06h2.81l.62,1.85a11.83,11.83,0,0,1,1.56-1,10.37,10.37,0,0,1,2-.8,7.44,7.44,0,0,1,2.18-.33,6,6,0,0,1,3,.72,5.72,5.72,0,0,1,2,2,9.33,9.33,0,0,1,1.15,3,17.75,17.75,0,0,1,.36,3.66,17.1,17.1,0,0,1-.67,5.16,5.56,5.56,0,0,1-5.87,4.26,10.64,10.64,0,0,1-2.95-.43,12.21,12.21,0,0,1-2.77-1.14v9.45Zm8.12-10.75a3.83,3.83,0,0,0,2.09-.59,4,4,0,0,0,1.49-2,11,11,0,0,0,.57-4,10.52,10.52,0,0,0-.59-3.85,4.53,4.53,0,0,0-1.5-2.09,3.52,3.52,0,0,0-2-.63,7.5,7.5,0,0,0-2.62.44,20.37,20.37,0,0,0-2.11.93v10.44a11.53,11.53,0,0,0,2.28,1A8.43,8.43,0,0,0,306.89,123.75Z"/><path class="cls-2" d="M318.64,126.38V108.06h2.74l.68,2a15.71,15.71,0,0,1,2.95-1.61,9.29,9.29,0,0,1,3.7-.69,5.3,5.3,0,0,1,2.91.76,5,5,0,0,1,1.81,1.91,15.51,15.51,0,0,1,4.49-2.26,8.87,8.87,0,0,1,2.57-.41,6,6,0,0,1,3.34.84,4.78,4.78,0,0,1,1.85,2.3,9.21,9.21,0,0,1,.56,3.3v12.19h-3.42V114.47a4.08,4.08,0,0,0-.43-1.91,3.21,3.21,0,0,0-1.2-1.25,3.75,3.75,0,0,0-1.87-.44,8.2,8.2,0,0,0-2.81.53,14.26,14.26,0,0,0-2.63,1.28,6.61,6.61,0,0,1,.27,1.82v11.88h-3.42V114.47a4.08,4.08,0,0,0-.43-1.91,3.23,3.23,0,0,0-1.18-1.25,3.67,3.67,0,0,0-1.85-.44,8.66,8.66,0,0,0-1.9.2,9,9,0,0,0-1.66.57,16.61,16.61,0,0,0-1.65.87v13.87Z"/><path class="cls-2" d="M358.16,126.59a10.55,10.55,0,0,1-4.64-.86,4.93,4.93,0,0,1-2.47-2.89,17.24,17.24,0,0,1-.73-5.64,17.48,17.48,0,0,1,.73-5.7,4.82,4.82,0,0,1,2.45-2.86,10.79,10.79,0,0,1,4.63-.82,13.14,13.14,0,0,1,4.09.53,3.94,3.94,0,0,1,2.29,1.89,7.91,7.91,0,0,1,.74,3.75,4.72,4.72,0,0,1-.67,2.67,3.75,3.75,0,0,1-1.88,1.44,8.63,8.63,0,0,1-2.9.44h-6.06a10.19,10.19,0,0,0,.46,3.17,2.91,2.91,0,0,0,1.55,1.71A7.76,7.76,0,0,0,359,124h5.72V126c-1,.13-2,.27-3,.39A28.75,28.75,0,0,1,358.16,126.59Zm-4.45-10.21h5.79a3.28,3.28,0,0,0,2-.51,2.29,2.29,0,0,0,.65-1.88,4.75,4.75,0,0,0-.4-2.16,2.27,2.27,0,0,0-1.28-1.13,6.7,6.7,0,0,0-2.36-.34,5.8,5.8,0,0,0-2.66.51,2.86,2.86,0,0,0-1.37,1.81A13.56,13.56,0,0,0,353.71,116.38Z"/><path class="cls-2" d="M369.43,126.38V108.06h2.74l.68,2a14.16,14.16,0,0,1,2.93-1.6,9.24,9.24,0,0,1,3.51-.7,5.64,5.64,0,0,1,3.31.88,4.82,4.82,0,0,1,1.79,2.31,8.59,8.59,0,0,1,.55,3.11v12.33h-3.42V114.47a4.08,4.08,0,0,0-.43-1.91,3.23,3.23,0,0,0-1.18-1.25,3.67,3.67,0,0,0-1.85-.44,8.66,8.66,0,0,0-1.9.2,8.77,8.77,0,0,0-1.66.57,16.61,16.61,0,0,0-1.65.87v13.87Z"/><path class="cls-2" d="M396,126.38a6.94,6.94,0,0,1-3.07-.6,3.66,3.66,0,0,1-1.78-1.93,9.12,9.12,0,0,1-.53-3.56l.14-9.42h-2.91v-2.23l3-.58.51-5.14H394v5.14h5v2.81h-5v9.38a6.19,6.19,0,0,0,.2,1.72,2.26,2.26,0,0,0,.58,1,2.56,2.56,0,0,0,.83.5,3.41,3.41,0,0,0,.85.18l2.26.21v2.53Z"/><path class="cls-3" d="M293.31,124.81l-1.44,1.89h0l-1.46-1.9A12.23,12.23,0,0,1,289.19,112l2.68-5.38v0l2.67,5.36A12.21,12.21,0,0,1,293.31,124.81Z"/><path class="cls-4" d="M293.31,124.81l-1.44,1.89a25.68,25.68,0,0,0,2.16-9.5,35.84,35.84,0,0,0-2.16-10.6l2.67,5.36A12.21,12.21,0,0,1,293.31,124.81Z"/><path class="cls-5" d="M290.43,124.81l1.44,1.89a26,26,0,0,1-2.15-9.5,36.31,36.31,0,0,1,2.15-10.6L289.21,112A12.21,12.21,0,0,0,290.43,124.81Z"/><path class="cls-2" d="M235.62,42.34l5.69-1.05-.52-4.22H235.2l-1.06-4,5.48-2.74-1.47-3.79-5.48,1.69-1.9-3.79,4.64-4-2.32-3.58-5.27,3.37-2.73-3.37L228.46,12l-3-2.74-4.43,4.21-3.37-2.32,2.11-5.89-4-1.48-2.74,5.27-4-1.27.84-6.53L205.5.42l-1.6,6.32-4.09-.42L198.75,0l-4.42.42.42,6.32-4.21,1-2.74-6.1L184,3.16l1.47,6.11-3.37,2.11L177.9,6.11l-3.58,2.74,3.37,5.26-3.16,2.74-5.27-3.79-2.74,3.37,4.64,4.21L169.05,24l-6.11-2.1-1.89,3.79,5.69,2.95-1.48,4-6.32-.84L158.1,36l6.32,1.69-.63,4-6.11,1,.21,4.22,6.32-.22.84,4.22-5.9,2.53,1.48,4,5.89-1.69,2.11,3.79-5.27,4L165.89,67l5.27-3.16L173.9,67,170.11,72l3.16,2.74,4.42-4.42,3.58,2.31L179,78.78l4,1.48,2.73-5.06,4.22,1.48-.85,5.9,4.22.84,1.68-5.9,4,.63.85,5.9,4.56-.56-.14-5.76,4.21-.84,2.32,5.47,4.14-1.71-1.61-5.24,3.79-2.1,3.79,4.63,3.58-2.32-3.16-5.05,3.37-2.74,4.64,3.58,2.95-3.58L228,64l2.53-3.58L236,62.35l1.47-4-4.63-2.53,1.26-4.21,5.69.63.84-4.21L235,46.55ZM199.49,72.89A30.87,30.87,0,1,1,230.35,42,30.87,30.87,0,0,1,199.49,72.89Z"/><path class="cls-2" d="M199,13.38a28.65,28.65,0,1,0,29.13,28.16A28.65,28.65,0,0,0,199,13.38Zm20.65,13.4L214,29a19.08,19.08,0,0,0-11-6.21c-.41-2-.81-3.93-1.22-5.9A25.25,25.25,0,0,1,219.66,26.78Zm-23.12-9.86-1,6A19.21,19.21,0,0,0,185,29.26l-6-2A25.25,25.25,0,0,1,196.54,16.92ZM174.22,42.45a25.31,25.31,0,0,1,2-10.38l5.13,3.79a19,19,0,0,0-.87,5.73v.11a18.27,18.27,0,0,0,1,6l-5.07,4.65A25.32,25.32,0,0,1,174.22,42.45ZM179,56.76l6.45-2.34a18.45,18.45,0,0,0,4.13,3.43,18.89,18.89,0,0,0,6,2.45c.41,2.28.81,4.57,1.22,6.86A25.26,25.26,0,0,1,179,56.76Zm4.21-14.42a16.32,16.32,0,1,1,16.63,16A16.34,16.34,0,0,1,183.17,42.34ZM202,67.18l1.28-6.79a19.15,19.15,0,0,0,10.44-5.82l6.39,2.07A25.27,25.27,0,0,1,202,67.18ZM217.73,47.9a19.19,19.19,0,0,0,.07-12.39q2.32-2.05,4.63-4.13a25.37,25.37,0,0,1,.26,20.72Z"/><path class="cls-2" d="M199.49,31A11.06,11.06,0,1,0,210.55,42,11.06,11.06,0,0,0,199.49,31Zm0,20.65a9.6,9.6,0,1,1,9.59-9.6A9.61,9.61,0,0,1,199.49,51.62Z"/><circle class="cls-2" cx="199.49" cy="42.02" r="9.16"/><path class="cls-3" d="M200.25,46.27l-.75,1h0l-.75-1a6.34,6.34,0,0,1-.64-6.68l1.39-2.8h0l1.38,2.79A6.36,6.36,0,0,1,200.25,46.27Z"/><path class="cls-6" d="M200.25,46.27l-.75,1a13.5,13.5,0,0,0,1.12-4.94,18.94,18.94,0,0,0-1.12-5.51l1.38,2.79A6.36,6.36,0,0,1,200.25,46.27Z"/><path class="cls-7" d="M198.75,46.27l.75,1a13.2,13.2,0,0,1-1.13-4.94,18.47,18.47,0,0,1,1.13-5.51l-1.39,2.79A6.34,6.34,0,0,0,198.75,46.27Z"/></g></g></g></svg>